<?xml version="1.0" encoding="UTF-8" standalone="no"?>
<svg
   viewBox="0 0 1095 1095"
   width="1095"
   height="1095"
   version="1.1"
   id="svg3"
   sodipodi:docname="BriarVaultIcon.svg"
   inkscape:version="1.4.4 (dcaf3e7d9e, 2026-05-05)"
   xmlns:inkscape="http://www.inkscape.org/namespaces/inkscape"
   xmlns:sodipodi="http://sodipodi.sourceforge.net/DTD/sodipodi-0.dtd"
   xmlns="http://www.w3.org/2000/svg"
   xmlns:svg="http://www.w3.org/2000/svg">
  <defs
     id="defs3" />
  <sodipodi:namedview
     id="namedview3"
     pagecolor="#505050"
     bordercolor="#ffffff"
     borderopacity="1"
     inkscape:showpageshadow="0"
     inkscape:pageopacity="0"
     inkscape:pagecheckerboard="1"
     inkscape:deskcolor="#505050"
     inkscape:zoom="1.0703196"
     inkscape:cx="547.5"
     inkscape:cy="547.5"
     inkscape:window-width="2560"
     inkscape:window-height="1381"
     inkscape:window-x="0"
     inkscape:window-y="0"
     inkscape:window-maximized="1"
     inkscape:current-layer="svg3" />
  <path
     d="M189.62 33.4C210.1 31.12 233.68 32.81 254.5 32.77C295.5 32.68 336.5 32.73 377.5 32.76C500.17 32.87 622.83 32.75 745.5 32.73C780.83 32.72 816.17 32.64 851.5 32.76C871.72 32.83 892.4 31.5 912.49 34.2C937.74 37.59 962.41 46.79 983.72 60.77C1023.49 86.87 1052.86 129.34 1060.77 176.55C1063.76 194.37 1063.1 212.49 1063.09 230.5C1063.08 254.17 1063.18 277.83 1063.07 301.5C1062.27 469.49 1063.07 637.51 1063.06 805.5C1063.06 828.83 1063.1 852.17 1063.07 875.5C1063.05 892.55 1063.58 909.57 1060.72 926.44C1053.98 966.34 1031 1003.79 999.9 1029.42C975.44 1049.59 945.07 1063.17 913.48 1066.74C888.12 1069.6 861.99 1067.93 836.5 1067.96C772.83 1068.03 709.17 1067.84 645.5 1067.95C525.17 1068.15 404.83 1067.74 284.5 1067.96C264.5 1068 244.5 1068.01 224.5 1067.96C203.95 1067.91 183.87 1068.08 163.68 1063.68C121.85 1054.57 85.27 1027.13 61.18 992.3C46.54 971.14 36.85 945.9 33.29 920.45C30.45 900.1 32.03 878.99 31.97 858.5C31.87 821.17 31.93 783.83 31.97 746.5C32.1 620.17 31.74 493.83 31.98 367.5C32.06 328.5 32.05 289.5 32 250.5C31.96 226.44 29.98 201.33 34.21 177.55C48.1 99.38 111.22 42.15 189.62 33.4ZM635.5 427.54C640.72 425.83 646.17 424.66 651.37 422.82C673.71 414.94 695.11 402.23 709.74 383.25C746.19 335.98 729.09 265.78 676.34 239.17C629.08 215.33 572.7 220.39 521.5 220.23C488.5 220.13 455.5 220.29 422.5 220.23C410.83 220.21 399.17 220.26 387.5 220.22C380.41 220.19 373.1 219.72 366.06 220.5C366.06 223.5 366.06 226.5 366.06 229.5C378.41 231.05 390.5 232.38 401.29 239.21C425.61 254.64 421.9 289.76 421.89 314.5C421.88 321.83 421.88 329.17 421.89 336.5C421.97 397.5 421.91 458.5 421.89 519.5C421.89 538.83 421.9 558.17 421.9 577.5C421.9 586.78 420.53 597.4 422.5 606.41C440.13 605.31 457.92 605.43 475.5 607.19C483.26 607.96 490.94 609.53 498.66 610.5C500.15 604.47 499.53 597.75 499.54 591.5C499.56 579.83 499.49 568.17 499.54 556.5C499.68 517.84 499.13 479.16 499.56 440.5C507.75 437.85 528.84 439.45 538.5 439.47C578.16 439.53 619.86 444.7 649.31 474.19C695.48 520.44 683.35 606.79 630.74 643.25C615.17 654.04 596.33 660.24 577.5 661.87C566.51 662.82 555.49 662.3 544.5 662.94C545.83 667.86 547.17 672.78 548.5 677.7C556.62 678.73 565.29 678.06 573.5 677.94C597.55 677.59 621.61 674.42 644.58 667.16C656.02 663.54 669.18 659.42 679.23 652.7C682.47 650.54 685.08 647.09 688 644.51C696.14 637.31 704.09 629.91 712.19 622.68C717.37 618.05 727.54 610.97 731.03 605.52C752.98 571.17 754.15 521.99 733.5 487C719.02 462.45 693.49 445.88 667.2 436.38C661.39 434.28 655.5 432.42 649.5 430.95C644.87 429.81 639.74 429.71 635.5 427.54ZM500.25 423.5C499.13 418.04 499.63 412.12 499.65 406.5C499.68 397.5 499.68 388.5 499.68 379.5C499.71 350.17 499.76 320.83 499.69 291.5C499.67 280.84 499.67 270.15 500.05 259.5C500.24 254.23 500.31 247.34 503.3 242.78C508.36 235.05 527.36 236.75 535.5 236.76C565.45 236.83 598.87 235.38 624.33 254.12C661.43 281.43 666.55 337.86 645.22 376.71C638.28 389.35 627.99 399.66 615.9 407.42C591.66 422.95 563.31 423.69 535.5 423.71C523.85 423.72 511.86 424.47 500.25 423.5ZM388.5 583.25C388.35 566.12 373.36 555.88 362.51 544.99C348.26 530.69 338.85 512.42 341.42 491.72C343.92 471.64 357.04 457.4 367.85 441.33C377.82 426.52 384.78 408.66 382.74 390.52C381.95 383.41 380.12 376.81 377.23 370.28C374.19 363.44 366.75 350.64 359.85 347.5C364.68 358.79 368.73 368.85 367.91 381.5C365.04 425.27 314.74 444.03 316.06 490.5C316.71 513.58 329.55 533.3 347.89 546.58C356.24 552.62 366.22 556.71 373.98 563.51C380.58 569.29 383.96 576.03 388.5 583.25ZM394.11 468.5C388.22 469.75 382.19 476.25 378.37 480.84C375.14 484.74 372.46 489.44 370.59 494.14C368.99 498.14 368.17 502.22 367.8 506.5C365.26 536.01 389.96 543.5 397.58 566.87C401.52 578.97 398.87 585.53 397.5 597.24C410.31 582.57 410.96 559.29 401.87 542.64C396.21 532.25 387.44 522.87 384.4 511.2C380.32 495.57 384.95 481.14 394.11 468.5ZM872.5 581.76C880.19 590.2 894.25 590.16 898.68 578.24C902.42 568.19 897.04 557.32 887.79 552.68C884.5 551.02 881.18 550.41 877.5 550.88C872.05 551.59 870.6 555.82 867.32 556.6C862.69 557.71 853.79 556.71 848.5 557.1C837.78 557.89 826.9 560.1 816.61 563.2C778.52 574.69 746.59 600.82 717.71 627.19C711.27 633.06 704.94 639.19 698.32 644.85C693.59 648.89 687.26 653.28 683.98 658.5C689.82 662.93 695.66 667.35 701.5 671.78C710.76 658.86 723.4 647.32 734.73 636.22C762.49 609.04 792.41 585.71 829.52 573.05C843.26 568.36 858 566.23 872.5 566.15C875.79 566.14 879.64 566.92 882.85 566.51C883.62 566.42 884.74 565.08 885.35 565.27C886.87 565.72 886.55 568.41 886.62 569.5C881.4 567.8 875.04 568.49 869.5 568.75C857.34 569.33 845.92 571.45 834.19 574.59C782.47 588.45 739.41 636.41 704.5 674.56C708.86 679.68 713.69 684.39 717.92 689.63C721.36 693.89 724.19 698.64 727.5 703.01C735.69 695.48 744.37 681.31 751.65 672.17C772.13 646.44 792.51 620.27 819.84 601.37C835.08 590.85 853.73 582.13 872.5 581.76ZM512.05 626.5C509.85 617.98 489.13 616.65 481.54 615.7C453.84 612.23 425.07 612.41 397.5 616.92C390.48 618.07 373.28 620 370.86 627.5C375.6 634.42 394.48 636.17 402.5 636.91C429.58 639.43 457.52 640.01 484.5 636.01C492.1 634.88 507.52 633.19 512.05 626.5ZM525.5 628.87C516.49 638.79 501.26 641.37 488.55 643.31C458.32 647.93 426.81 647.86 396.5 644.08C383.51 642.46 366.19 640.75 356.5 630.94C353.65 634.16 352.81 639.86 351.57 644.14C348.11 656.02 345.6 668.23 343.77 680.47C340.89 699.57 340.66 719.38 344.26 738.42C354.38 791.91 392.89 828.66 443.64 844.77C458.52 849.49 473.96 851.99 489.5 853.11C507.52 854.41 525.56 853.76 543.38 850.68C595.58 841.69 638.07 807.33 673.54 770.05C683.83 759.24 693.32 747.79 702.64 736.15C707.44 730.16 713.06 724.21 716.82 717.5C705.12 698.83 689.89 680.09 670.5 669C662.94 673.34 656.4 680.61 649.39 685.92C633.47 698.01 616.74 709.61 597.74 716.29C583.41 721.33 565.01 721.86 554.66 708.81C542.81 693.89 538.31 670.49 533.23 652.39C531.3 645.52 529.55 634.5 525.5 628.87ZM720.5 711.57C721.55 711.02 723.52 710.16 723.51 708.51C723.5 706.62 717.45 699.2 716.05 697.43C707.79 686.96 699.04 677.23 688.2 669.33C684.95 666.96 679.89 661.52 676.18 664.5C680.67 669.62 687.58 673.11 692.64 677.87C703.35 687.97 712.42 699.28 720.5 711.57ZM221.4 913.5C223.88 911.7 226.96 910.91 228.97 908.43C233.91 902.35 230.92 893.35 224.32 890.19C217.06 886.71 208.31 887.82 200.5 887.85C196.08 887.87 191.36 887.41 187.13 888.5C188.67 890.18 191.67 890.44 192.83 892.69C194.61 896.11 193.41 901.82 193.42 905.5C193.44 914.16 194.97 931.12 192.5 938.72C190.67 939.65 188.84 940.57 187.01 941.5C188.42 942.74 186.16 941.8 187.76 942.68C190.11 943.97 195.82 942.82 198.5 942.82C208.27 942.84 222.38 945.06 230.23 937.71C241.12 927.49 233.12 916.83 221.4 913.5ZM294.87 917.5C297.85 915.77 301.24 914.75 303.81 912.32C309.95 906.52 308.49 895.35 301.29 891.22C293.5 886.76 284.09 887.87 275.5 887.85C271.21 887.84 266.57 887.29 262.47 888.5C264.14 889.54 265.82 890.58 267.5 891.62C269.54 895.81 268.67 900.9 268.67 905.5C268.68 914.33 270.27 930.62 267.88 938.5C266.1 939.5 264.32 940.5 262.55 941.5C262.99 941.8 263.15 942.47 263.63 942.69C264.91 943.28 267.13 942.87 268.5 942.87C271.91 942.88 280.54 943.86 283.38 942.66C283.87 942.46 284.05 941.81 284.5 941.53C282.4 940.52 280.3 939.51 278.2 938.5C278.2 932.01 278.2 925.52 278.2 919.03C280.34 918.91 283.18 918.32 285.19 919.35C287.05 920.3 288.54 924.07 289.69 925.78C295.54 934.45 297.33 943.05 309.5 943.03C312.58 943.03 313.87 943.45 315.88 941.5C313.95 940.51 311.74 939.89 310 938.52C304.34 934.04 299.06 923.62 294.87 917.5ZM362.98 887.92C355.41 887.92 347.83 887.92 340.25 887.92C342.09 891.05 342.14 890.04 345.57 891.5C347.78 895.71 346.95 900.81 346.95 905.5C346.96 914.04 348.46 931.01 346.18 938.5C344.22 939.5 342.26 940.5 340.3 941.5C343.19 944.44 352.12 942.79 356.5 942.83C358.01 942.84 360.88 943.45 362.24 942.68C363.79 941.8 361.6 942.73 362.93 941.5C360.96 940.5 358.99 939.5 357.02 938.5C354.62 931.55 356.12 913.68 356.11 905.5C356.1 901.83 355.16 896.64 356.67 893.22C357.91 890.41 360.55 891.51 362.23 889.76C362.69 889.28 362.61 888.46 362.98 887.92ZM419.5 887.56C417.98 887.59 416.15 887.28 414.84 888.25C413.13 889.5 409.72 899.75 408.71 902.24C405.25 910.73 401.82 919.23 398.16 927.63C396.67 931.05 395.64 935.77 393 938.51C391.61 939.95 389.52 940.46 387.86 941.5C389.53 942.83 386.84 941.73 388.71 942.68C389.51 943.09 404.54 943.11 405.24 942.7C406.79 941.81 404.6 942.74 405.93 941.5C404.02 940.5 402.11 939.5 400.19 938.5C401.63 934.03 403.06 929.56 404.5 925.1C411.5 925.1 418.5 925.1 425.5 925.1C427.09 927.62 431.37 936.46 429.54 939.05C428.7 940.25 426.01 940.74 424.74 941.5C425.15 941.81 425.23 942.48 425.68 942.71C427.93 943.85 437.52 942.88 440.5 942.88C442.07 942.88 444.91 943.42 446.34 942.71C446.79 942.48 446.85 941.81 447.26 941.5C445.75 940.65 443.88 940.08 442.53 938.99C438.91 936.05 437.55 928.9 435.78 924.71C432.93 917.92 430.02 911.15 427.19 904.36C424.89 898.84 423.14 892.24 419.5 887.56ZM503.15 917.5C506.01 915.7 509.5 914.95 511.94 912.45C518.47 905.74 516.2 894.5 508.07 890.44C500.63 886.72 491.55 887.86 483.5 887.84C479.21 887.83 474.5 887.31 470.41 888.5C472.18 889.5 473.95 890.5 475.72 891.5C477.97 895.68 477.17 900.83 477.13 905.5C477.03 914.08 478.68 931.04 476.25 938.5C474.37 939.5 472.48 940.5 470.6 941.5C471.03 941.8 471.16 942.46 471.64 942.68C472.9 943.26 475.14 942.82 476.5 942.82C481.27 942.85 489.54 944.28 493.09 941.5C490.87 940.5 488.65 939.5 486.44 938.5C486.44 932.07 486.44 925.64 486.44 919.21C488.59 918.82 491.18 918.06 493.33 919.05C494.97 919.82 496.25 922.81 497.24 924.27C500.6 929.28 503.24 936.72 508 940.52C511.64 943.41 521.37 944.84 524.55 941.5C522.32 940.12 519.67 939.68 517.66 937.87C512.21 932.98 507.19 923.72 503.15 917.5ZM600.11 887.92C592.47 887.92 584.82 887.92 577.18 887.92C577.51 888.47 577.4 889.25 577.82 889.74C579.34 891.53 581.94 890.74 583.69 893.79C585.68 897.25 586.98 901.29 588.53 904.96C593.84 917.48 598.55 930.45 604.5 942.67C605.95 942.81 607.75 943.4 609.14 942.57C610.52 941.74 613.9 932.31 614.77 930.29C617.98 922.8 621.21 915.31 624.34 907.8C626.24 903.26 627.84 898.1 630.43 893.92C632.77 890.13 634.55 891.81 636.8 887.93C630.51 887.93 624.21 887.93 617.91 887.93C619.78 889.18 621.64 890.43 623.5 891.68C624.51 896.8 621.7 901.49 619.68 906.21C616.38 913.92 614.06 922.88 609.5 929.92C605.46 922.61 602.94 914.57 599.53 906.96C597.65 902.76 594.31 897.14 594.63 892.5C596.45 890.97 598.28 889.45 600.11 887.92ZM676.5 887.68C673.87 891.68 672.39 896.65 670.57 901.11C667.31 909.12 663.96 917.1 660.5 925.02C658.72 929.1 657.35 936.41 653.65 939.13C652.25 940.17 650.44 940.65 648.92 941.5C650.5 942.81 647.95 941.74 649.73 942.68C650.53 943.1 665.47 943.07 666.22 942.66C667.71 941.84 665.63 942.66 666.93 941.5C665.12 940.5 663.31 939.51 661.5 938.51C662.85 934.05 664.2 929.58 665.55 925.12C672.77 925.12 679.99 925.12 687.2 925.12C688.66 929.58 690.11 934.04 691.57 938.5C689.76 939.5 687.94 940.5 686.13 941.5C687.35 942.63 685.41 941.82 686.8 942.62C688.18 943.42 690.97 942.84 692.5 942.84C696.76 942.83 705.7 944.45 708.58 941.5C706.82 940.41 704.56 939.94 703.19 938.31C700.88 935.6 699.87 931.24 698.49 928C694.81 919.35 691.14 910.7 687.46 902.04C686.39 899.52 683.23 889.16 681.3 888.05C679.93 887.26 678 887.65 676.5 887.68ZM751.27 887.9C743.78 887.9 736.28 887.9 728.78 887.9C730.69 889.43 732.6 890.97 734.5 892.5C738.16 910.26 726.31 937.88 751.46 943.23C754.45 943.86 757.45 944.1 760.5 943.88C763.2 943.68 766.1 943.15 768.65 942.23C788.63 935.04 777.69 909.72 781.04 894.54C782 890.2 785.49 891.56 787.59 887.92C781.27 887.92 774.95 887.92 768.64 887.92C769.09 888.51 769.11 889.38 769.64 889.91C771.6 891.87 774.34 890.57 775.45 894.05C776.81 898.29 775.84 904.07 775.82 908.5C775.77 920.43 778.71 936.92 762.5 938.92C760.54 939.16 758.49 939.15 756.54 938.85C742.69 936.67 744.71 921.98 744.63 911.5C744.58 905.22 744.08 898.68 745.24 892.5C747.25 890.97 749.26 889.43 751.27 887.9ZM836.16 887.92C828.56 887.92 820.96 887.92 813.36 887.92C815.41 889.53 817.45 891.14 819.5 892.76C821.46 902.43 820.25 913.61 820.16 923.5C820.12 928.4 820.88 933.94 819.01 938.5C817.13 939.5 815.25 940.5 813.36 941.5C815.76 943.86 821.03 942.87 824.5 942.88C834.7 942.93 845.38 943.66 855.5 942.58C856.79 937.83 858.1 932.39 857.5 927.57C854.58 929.4 854.15 932.66 851.61 935.1C846.79 939.7 836.31 940.38 830.5 937.96C828.54 933.55 829.39 928.27 829.4 923.5C829.43 914.58 827.83 900.76 830.03 892.5C832.07 890.97 834.11 889.45 836.16 887.92ZM873.54 887.83C873.54 892.5 873.54 897.17 873.54 901.84C876.16 900.22 876.28 897.24 878.49 895C882.05 891.38 888.62 891.6 893.13 892.5C893.13 907.83 893.13 923.17 893.13 938.5C890.86 939.5 888.58 940.5 886.31 941.5C889.15 944.42 898.15 942.8 902.5 942.83C904.1 942.84 906.88 943.41 908.34 942.71C908.81 942.48 908.91 941.81 909.34 941.5C907.39 940.58 905.45 939.65 903.5 938.73C901.81 933.62 902.64 927.85 902.64 922.5C902.63 912.51 902.39 902.49 902.78 892.5C907.17 891.5 913.26 891.22 916.9 894.59C919.32 896.84 918.95 900.86 922.12 901.5C922.12 896.94 922.12 892.39 922.12 887.83C905.93 887.83 889.73 887.83 873.54 887.83ZM202.8 911.5C202.8 904.93 202.8 898.37 202.8 891.8C207.55 891.38 213.72 890.71 217.87 893.61C223.18 897.33 222.44 907.2 216.94 910.45C212.96 912.8 207.07 912.34 202.8 911.5ZM278.11 892.16C282.74 891.73 288.62 891.05 292.75 893.71C299.01 897.74 299.04 908.3 293.04 912.54C288.89 915.48 282.88 915.2 278.11 914.5C278.11 907.05 278.11 899.61 278.11 892.16ZM486.4 913.79C486.4 906.69 486.4 899.6 486.4 892.5C490.23 891.69 494.42 891.3 498.3 892.3C505.77 894.24 508.11 905.27 503.34 910.85C499.62 915.2 491.26 915.67 486.4 913.79ZM415.5 899.6C418.17 906.49 420.83 913.39 423.5 920.28C417.93 920.28 412.36 920.28 406.79 920.28C409.69 913.39 412.6 906.49 415.5 899.6ZM676.5 899.59C679.31 906.23 682.13 912.86 684.94 919.5C680.23 921.18 672.74 921.05 667.99 919.5C670.83 912.86 673.66 906.23 676.5 899.59ZM202.84 937.94C202.84 930.79 202.84 923.65 202.84 916.5C208.14 915.97 214.55 915.31 219.37 918.1C225.68 921.76 226.69 931.72 220.88 936.38C216.06 940.25 208.27 939.95 202.84 937.94ZM557.51 1002.5C561.35 998.98 564.75 995.64 565.56 990.2C566.96 980.65 559.19 971.42 549.5 971.19C538.73 970.94 530.55 980.47 532.48 991.06C533.42 996.19 536.66 999.11 540.24 1002.5C537.17 1012.98 534.1 1023.46 531.03 1033.95C542.79 1033.95 554.55 1033.95 566.31 1033.95C563.37 1023.46 560.44 1012.98 557.51 1002.5Z"
     fill="#f7ecd8"
     fill-rule="evenodd"
     stroke="#f7ecd8"
     stroke-width="0.25"
     stroke-linejoin="round"
     id="path1" />
  <path
     d="M183.99 0.17C426.65 0.17 669.31 0.17 911.97 0.17C914.59 1.1 917.64 0.74 920.5 1.09C925.81 1.73 931.27 2.71 936.5 3.87C949.11 6.66 961.62 10.84 973.42 16.09C1023.12 38.2 1061.58 79.31 1082.17 129.37C1086.13 139 1089.64 149.49 1091.63 159.7C1092.71 165.27 1092.8 171.88 1094.83 177.04C1094.83 426.41 1094.83 675.77 1094.83 925.14C1092.96 931.63 1092.67 938.82 1091.18 945.5C1089.17 954.54 1086.11 963.65 1082.71 972.26C1067.3 1011.19 1039.55 1045.11 1004.82 1068.36C992.16 1076.83 978.59 1083.35 964.48 1088.99C958.8 1091.26 952.26 1092.15 946.92 1094.83C680.62 1094.83 414.31 1094.83 148.01 1094.83C142.66 1092.23 136.12 1091.35 130.45 1089.13C118.57 1084.49 107.09 1078.99 96.22 1072.31C58.9 1049.38 28.62 1013.79 12.54 972.94C8.92 963.72 5.5 953.91 3.46 944.21C2.14 937.95 2 931.09 0.17 925.06C0.17 677 0.17 428.94 0.17 180.88C2.25 174.77 2 167.12 3.3 160.65C5.48 149.85 9.04 138.88 13.19 128.68C32.5 81.24 69.34 40.35 116.04 18.53C129.28 12.35 143.25 7.28 157.5 4.06C163.07 2.8 168.86 1.87 174.52 1.2C177.68 0.83 181.04 1.19 183.99 0.17ZM189.62 33.4C111.22 42.15 48.1 99.38 34.21 177.55C29.98 201.33 31.96 226.44 32 250.5C32.05 289.5 32.06 328.5 31.98 367.5C31.74 493.83 32.1 620.17 31.97 746.5C31.93 783.83 31.87 821.17 31.97 858.5C32.03 878.99 30.45 900.1 33.29 920.45C36.85 945.9 46.54 971.14 61.18 992.3C85.27 1027.13 121.85 1054.57 163.68 1063.68C183.87 1068.08 203.95 1067.91 224.5 1067.96C244.5 1068.01 264.5 1068 284.5 1067.96C404.83 1067.74 525.17 1068.15 645.5 1067.95C709.17 1067.84 772.83 1068.03 836.5 1067.96C861.99 1067.93 888.12 1069.6 913.48 1066.74C945.07 1063.17 975.44 1049.59 999.9 1029.42C1031 1003.79 1053.98 966.34 1060.72 926.44C1063.58 909.57 1063.05 892.55 1063.07 875.5C1063.1 852.17 1063.06 828.83 1063.06 805.5C1063.07 637.51 1062.27 469.49 1063.07 301.5C1063.18 277.83 1063.08 254.17 1063.09 230.5C1063.1 212.49 1063.76 194.37 1060.77 176.55C1052.86 129.34 1023.49 86.87 983.72 60.77C962.41 46.79 937.74 37.59 912.49 34.2C892.4 31.5 871.72 32.83 851.5 32.76C816.17 32.64 780.83 32.72 745.5 32.73C622.83 32.75 500.17 32.87 377.5 32.76C336.5 32.73 295.5 32.68 254.5 32.77C233.68 32.81 210.1 31.12 189.62 33.4ZM635.5 427.54C639.74 429.71 644.87 429.81 649.5 430.95C655.5 432.42 661.39 434.28 667.2 436.38C693.49 445.88 719.02 462.45 733.5 487C754.15 521.99 752.98 571.17 731.03 605.52C727.54 610.97 717.37 618.05 712.19 622.68C704.09 629.91 696.14 637.31 688 644.51C685.08 647.09 682.47 650.54 679.23 652.7C669.18 659.42 656.02 663.54 644.58 667.16C621.61 674.42 597.55 677.59 573.5 677.94C565.29 678.06 556.62 678.73 548.5 677.7C547.17 672.78 545.83 667.86 544.5 662.94C555.49 662.3 566.51 662.82 577.5 661.87C596.33 660.24 615.17 654.04 630.74 643.25C683.35 606.79 695.48 520.44 649.31 474.19C619.86 444.7 578.16 439.53 538.5 439.47C528.84 439.45 507.75 437.85 499.56 440.5C499.13 479.16 499.68 517.84 499.54 556.5C499.49 568.17 499.56 579.83 499.54 591.5C499.53 597.75 500.15 604.47 498.66 610.5C490.94 609.53 483.26 607.96 475.5 607.19C457.92 605.43 440.13 605.31 422.5 606.41C420.53 597.4 421.9 586.78 421.9 577.5C421.9 558.17 421.89 538.83 421.89 519.5C421.91 458.5 421.97 397.5 421.89 336.5C421.88 329.17 421.88 321.83 421.89 314.5C421.9 289.76 425.61 254.64 401.29 239.21C390.5 232.38 378.41 231.05 366.06 229.5C366.06 226.5 366.06 223.5 366.06 220.5C373.1 219.72 380.41 220.19 387.5 220.22C399.17 220.26 410.83 220.21 422.5 220.23C455.5 220.29 488.5 220.13 521.5 220.23C572.7 220.39 629.08 215.33 676.34 239.17C729.09 265.78 746.19 335.98 709.74 383.25C695.11 402.23 673.71 414.94 651.37 422.82C646.17 424.66 640.72 425.83 635.5 427.54ZM500.25 423.5C511.86 424.47 523.85 423.72 535.5 423.71C563.31 423.69 591.66 422.95 615.9 407.42C627.99 399.66 638.28 389.35 645.22 376.71C666.55 337.86 661.43 281.43 624.33 254.12C598.87 235.38 565.45 236.83 535.5 236.76C527.36 236.75 508.36 235.05 503.3 242.78C500.31 247.34 500.24 254.23 500.05 259.5C499.67 270.15 499.67 280.84 499.69 291.5C499.76 320.83 499.71 350.17 499.68 379.5C499.68 388.5 499.68 397.5 499.65 406.5C499.63 412.12 499.13 418.04 500.25 423.5ZM388.5 583.25C383.96 576.03 380.58 569.29 373.98 563.51C366.22 556.71 356.24 552.62 347.89 546.58C329.55 533.3 316.71 513.58 316.06 490.5C314.74 444.03 365.04 425.27 367.91 381.5C368.73 368.85 364.68 358.79 359.85 347.5C366.75 350.64 374.19 363.44 377.23 370.28C380.12 376.81 381.95 383.41 382.74 390.52C384.78 408.66 377.82 426.52 367.85 441.33C357.04 457.4 343.92 471.64 341.42 491.72C338.85 512.42 348.26 530.69 362.51 544.99C373.36 555.88 388.35 566.12 388.5 583.25ZM394.11 468.5C384.95 481.14 380.32 495.57 384.4 511.2C387.44 522.87 396.21 532.25 401.87 542.64C410.96 559.29 410.31 582.57 397.5 597.24C398.87 585.53 401.52 578.97 397.58 566.87C389.96 543.5 365.26 536.01 367.8 506.5C368.17 502.22 368.99 498.14 370.59 494.14C372.46 489.44 375.14 484.74 378.37 480.84C382.19 476.25 388.22 469.75 394.11 468.5ZM872.5 581.76C853.73 582.13 835.08 590.85 819.84 601.37C792.51 620.27 772.13 646.44 751.65 672.17C744.37 681.31 735.69 695.48 727.5 703.01C724.19 698.64 721.36 693.89 717.92 689.63C713.69 684.39 708.86 679.68 704.5 674.56C739.41 636.41 782.47 588.45 834.19 574.59C845.92 571.45 857.34 569.33 869.5 568.75C875.04 568.49 881.4 567.8 886.62 569.5C886.55 568.41 886.87 565.72 885.35 565.27C884.74 565.08 883.62 566.42 882.85 566.51C879.64 566.92 875.79 566.14 872.5 566.15C858 566.23 843.26 568.36 829.52 573.05C792.41 585.71 762.49 609.04 734.73 636.22C723.4 647.32 710.76 658.86 701.5 671.78C695.66 667.35 689.82 662.93 683.98 658.5C687.26 653.28 693.59 648.89 698.32 644.85C704.94 639.19 711.27 633.06 717.71 627.19C746.59 600.82 778.52 574.69 816.61 563.2C826.9 560.1 837.78 557.89 848.5 557.1C853.79 556.71 862.69 557.71 867.32 556.6C870.6 555.82 872.05 551.59 877.5 550.88C881.18 550.41 884.5 551.02 887.79 552.68C897.04 557.32 902.42 568.19 898.68 578.24C894.25 590.16 880.19 590.2 872.5 581.76ZM512.05 626.5C507.52 633.19 492.1 634.88 484.5 636.01C457.52 640.01 429.58 639.43 402.5 636.91C394.48 636.17 375.6 634.42 370.86 627.5C373.28 620 390.48 618.07 397.5 616.92C425.07 612.41 453.84 612.23 481.54 615.7C489.13 616.65 509.85 617.98 512.05 626.5ZM525.5 628.87C529.55 634.5 531.3 645.52 533.23 652.39C538.31 670.49 542.81 693.89 554.66 708.81C565.01 721.86 583.41 721.33 597.74 716.29C616.74 709.61 633.47 698.01 649.39 685.92C656.4 680.61 662.94 673.34 670.5 669C689.89 680.09 705.12 698.83 716.82 717.5C713.06 724.21 707.44 730.16 702.64 736.15C693.32 747.79 683.83 759.24 673.54 770.05C638.07 807.33 595.58 841.69 543.38 850.68C525.56 853.76 507.52 854.41 489.5 853.11C473.96 851.99 458.52 849.49 443.64 844.77C392.89 828.66 354.38 791.91 344.26 738.42C340.66 719.38 340.89 699.57 343.77 680.47C345.6 668.23 348.11 656.02 351.57 644.14C352.81 639.86 353.65 634.16 356.5 630.94C366.19 640.75 383.51 642.46 396.5 644.08C426.81 647.86 458.32 647.93 488.55 643.31C501.26 641.37 516.49 638.79 525.5 628.87ZM720.5 711.57C712.42 699.28 703.35 687.97 692.64 677.87C687.58 673.11 680.67 669.62 676.18 664.5C679.89 661.52 684.95 666.96 688.2 669.33C699.04 677.23 707.79 686.96 716.05 697.43C717.45 699.2 723.5 706.62 723.51 708.51C723.52 710.16 721.55 711.02 720.5 711.57ZM221.4 913.5C233.12 916.83 241.12 927.49 230.23 937.71C222.38 945.06 208.27 942.84 198.5 942.82C195.82 942.82 190.11 943.97 187.76 942.68C186.16 941.8 188.42 942.74 187.01 941.5C188.84 940.57 190.67 939.65 192.5 938.72C194.97 931.12 193.44 914.16 193.42 905.5C193.41 901.82 194.61 896.11 192.83 892.69C191.67 890.44 188.67 890.18 187.13 888.5C191.36 887.41 196.08 887.87 200.5 887.85C208.31 887.82 217.06 886.71 224.32 890.19C230.92 893.35 233.91 902.35 228.97 908.43C226.96 910.91 223.88 911.7 221.4 913.5ZM294.87 917.5C299.06 923.62 304.34 934.04 310 938.52C311.74 939.89 313.95 940.51 315.88 941.5C313.87 943.45 312.58 943.03 309.5 943.03C297.33 943.05 295.54 934.45 289.69 925.78C288.54 924.07 287.05 920.3 285.19 919.35C283.18 918.32 280.34 918.91 278.2 919.03C278.2 925.52 278.2 932.01 278.2 938.5C280.3 939.51 282.4 940.52 284.5 941.53C284.05 941.81 283.87 942.46 283.38 942.66C280.54 943.86 271.91 942.88 268.5 942.87C267.13 942.87 264.91 943.28 263.63 942.69C263.15 942.47 262.99 941.8 262.55 941.5C264.32 940.5 266.1 939.5 267.88 938.5C270.27 930.62 268.68 914.33 268.67 905.5C268.67 900.9 269.54 895.81 267.5 891.62C265.82 890.58 264.14 889.54 262.47 888.5C266.57 887.29 271.21 887.84 275.5 887.85C284.09 887.87 293.5 886.76 301.29 891.22C308.49 895.35 309.95 906.52 303.81 912.32C301.24 914.75 297.85 915.77 294.87 917.5ZM362.98 887.92C362.61 888.46 362.69 889.28 362.23 889.76C360.55 891.51 357.91 890.41 356.67 893.22C355.16 896.64 356.1 901.83 356.11 905.5C356.12 913.68 354.62 931.55 357.02 938.5C358.99 939.5 360.96 940.5 362.93 941.5C361.6 942.73 363.79 941.8 362.24 942.68C360.88 943.45 358.01 942.84 356.5 942.83C352.12 942.79 343.19 944.44 340.3 941.5C342.26 940.5 344.22 939.5 346.18 938.5C348.46 931.01 346.96 914.04 346.95 905.5C346.95 900.81 347.78 895.71 345.57 891.5C342.14 890.04 342.09 891.05 340.25 887.92C347.83 887.92 355.41 887.92 362.98 887.92ZM419.5 887.56C423.14 892.24 424.89 898.84 427.19 904.36C430.02 911.15 432.93 917.92 435.78 924.71C437.55 928.9 438.91 936.05 442.53 938.99C443.88 940.08 445.75 940.65 447.26 941.5C446.85 941.81 446.79 942.48 446.34 942.71C444.91 943.42 442.07 942.88 440.5 942.88C437.52 942.88 427.93 943.85 425.68 942.71C425.23 942.48 425.15 941.81 424.74 941.5C426.01 940.74 428.7 940.25 429.54 939.05C431.37 936.46 427.09 927.62 425.5 925.1C418.5 925.1 411.5 925.1 404.5 925.1C403.06 929.56 401.63 934.03 400.19 938.5C402.11 939.5 404.02 940.5 405.93 941.5C404.6 942.74 406.79 941.81 405.24 942.7C404.54 943.11 389.51 943.09 388.71 942.68C386.84 941.73 389.53 942.83 387.86 941.5C389.52 940.46 391.61 939.95 393 938.51C395.64 935.77 396.67 931.05 398.16 927.63C401.82 919.23 405.25 910.73 408.71 902.24C409.72 899.75 413.13 889.5 414.84 888.25C416.15 887.28 417.98 887.59 419.5 887.56ZM503.15 917.5C507.19 923.72 512.21 932.98 517.66 937.87C519.67 939.68 522.32 940.12 524.55 941.5C521.37 944.84 511.64 943.41 508 940.52C503.24 936.72 500.6 929.28 497.24 924.27C496.25 922.81 494.97 919.82 493.33 919.05C491.18 918.06 488.59 918.82 486.44 919.21C486.44 925.64 486.44 932.07 486.44 938.5C488.65 939.5 490.87 940.5 493.09 941.5C489.54 944.28 481.27 942.85 476.5 942.82C475.14 942.82 472.9 943.26 471.64 942.68C471.16 942.46 471.03 941.8 470.6 941.5C472.48 940.5 474.37 939.5 476.25 938.5C478.68 931.04 477.03 914.08 477.13 905.5C477.17 900.83 477.97 895.68 475.72 891.5C473.95 890.5 472.18 889.5 470.41 888.5C474.5 887.31 479.21 887.83 483.5 887.84C491.55 887.86 500.63 886.72 508.07 890.44C516.2 894.5 518.47 905.74 511.94 912.45C509.5 914.95 506.01 915.7 503.15 917.5ZM600.11 887.92C598.28 889.45 596.45 890.97 594.63 892.5C594.31 897.14 597.65 902.76 599.53 906.96C602.94 914.57 605.46 922.61 609.5 929.92C614.06 922.88 616.38 913.92 619.68 906.21C621.7 901.49 624.51 896.8 623.5 891.68C621.64 890.43 619.78 889.18 617.91 887.93C624.21 887.93 630.51 887.93 636.8 887.93C634.55 891.81 632.77 890.13 630.43 893.92C627.84 898.1 626.24 903.26 624.34 907.8C621.21 915.31 617.98 922.8 614.77 930.29C613.9 932.31 610.52 941.74 609.14 942.57C607.75 943.4 605.95 942.81 604.5 942.67C598.55 930.45 593.84 917.48 588.53 904.96C586.98 901.29 585.68 897.25 583.69 893.79C581.94 890.74 579.34 891.53 577.82 889.74C577.4 889.25 577.51 888.47 577.18 887.92C584.82 887.92 592.47 887.92 600.11 887.92ZM676.5 887.68C678 887.65 679.93 887.26 681.3 888.05C683.23 889.16 686.39 899.52 687.46 902.04C691.14 910.7 694.81 919.35 698.49 928C699.87 931.24 700.88 935.6 703.19 938.31C704.56 939.94 706.82 940.41 708.58 941.5C705.7 944.45 696.76 942.83 692.5 942.84C690.97 942.84 688.18 943.42 686.8 942.62C685.41 941.82 687.35 942.63 686.13 941.5C687.94 940.5 689.76 939.5 691.57 938.5C690.11 934.04 688.66 929.58 687.2 925.12C679.99 925.12 672.77 925.12 665.55 925.12C664.2 929.58 662.85 934.05 661.5 938.51C663.31 939.51 665.12 940.5 666.93 941.5C665.63 942.66 667.71 941.84 666.22 942.66C665.47 943.07 650.53 943.1 649.73 942.68C647.95 941.74 650.5 942.81 648.92 941.5C650.44 940.65 652.25 940.17 653.65 939.13C657.35 936.41 658.72 929.1 660.5 925.02C663.96 917.1 667.31 909.12 670.57 901.11C672.39 896.65 673.87 891.68 676.5 887.68ZM751.27 887.9C749.26 889.43 747.25 890.97 745.24 892.5C744.08 898.68 744.58 905.22 744.63 911.5C744.71 921.98 742.69 936.67 756.54 938.85C758.49 939.15 760.54 939.16 762.5 938.92C778.71 936.92 775.77 920.43 775.82 908.5C775.84 904.07 776.81 898.29 775.45 894.05C774.34 890.57 771.6 891.87 769.64 889.91C769.11 889.38 769.09 888.51 768.64 887.92C774.95 887.92 781.27 887.92 787.59 887.92C785.49 891.56 782 890.2 781.04 894.54C777.69 909.72 788.63 935.04 768.65 942.23C766.1 943.15 763.2 943.68 760.5 943.88C757.45 944.1 754.45 943.86 751.46 943.23C726.31 937.88 738.16 910.26 734.5 892.5C732.6 890.97 730.69 889.43 728.78 887.9C736.28 887.9 743.78 887.9 751.27 887.9ZM836.16 887.92C834.11 889.45 832.07 890.97 830.03 892.5C827.83 900.76 829.43 914.58 829.4 923.5C829.39 928.27 828.54 933.55 830.5 937.96C836.31 940.38 846.79 939.7 851.61 935.1C854.15 932.66 854.58 929.4 857.5 927.57C858.1 932.39 856.79 937.83 855.5 942.58C845.38 943.66 834.7 942.93 824.5 942.88C821.03 942.87 815.76 943.86 813.36 941.5C815.25 940.5 817.13 939.5 819.01 938.5C820.88 933.94 820.12 928.4 820.16 923.5C820.25 913.61 821.46 902.43 819.5 892.76C817.45 891.14 815.41 889.53 813.36 887.92C820.96 887.92 828.56 887.92 836.16 887.92ZM873.54 887.83C889.73 887.83 905.93 887.83 922.12 887.83C922.12 892.39 922.12 896.94 922.12 901.5C918.95 900.86 919.32 896.84 916.9 894.59C913.26 891.22 907.17 891.5 902.78 892.5C902.39 902.49 902.63 912.51 902.64 922.5C902.64 927.85 901.81 933.62 903.5 938.73C905.45 939.65 907.39 940.58 909.34 941.5C908.91 941.81 908.81 942.48 908.34 942.71C906.88 943.41 904.1 942.84 902.5 942.83C898.15 942.8 889.15 944.42 886.31 941.5C888.58 940.5 890.86 939.5 893.13 938.5C893.13 923.17 893.13 907.83 893.13 892.5C888.62 891.6 882.05 891.38 878.49 895C876.28 897.24 876.16 900.22 873.54 901.84C873.54 897.17 873.54 892.5 873.54 887.83ZM202.8 911.5C207.07 912.34 212.96 912.8 216.94 910.45C222.44 907.2 223.18 897.33 217.87 893.61C213.72 890.71 207.55 891.38 202.8 891.8C202.8 898.37 202.8 904.93 202.8 911.5ZM278.11 892.16C278.11 899.61 278.11 907.05 278.11 914.5C282.88 915.2 288.89 915.48 293.04 912.54C299.04 908.3 299.01 897.74 292.75 893.71C288.62 891.05 282.74 891.73 278.11 892.16ZM486.4 913.79C491.26 915.67 499.62 915.2 503.34 910.85C508.11 905.27 505.77 894.24 498.3 892.3C494.42 891.3 490.23 891.69 486.4 892.5C486.4 899.6 486.4 906.69 486.4 913.79ZM415.5 899.6C412.6 906.49 409.69 913.39 406.79 920.28C412.36 920.28 417.93 920.28 423.5 920.28C420.83 913.39 418.17 906.49 415.5 899.6ZM676.5 899.59C673.66 906.23 670.83 912.86 667.99 919.5C672.74 921.05 680.23 921.18 684.94 919.5C682.13 912.86 679.31 906.23 676.5 899.59ZM202.84 937.94C208.27 939.95 216.06 940.25 220.88 936.38C226.69 931.72 225.68 921.76 219.37 918.1C214.55 915.31 208.14 915.97 202.84 916.5C202.84 923.65 202.84 930.79 202.84 937.94ZM557.51 1002.5C560.44 1012.98 563.37 1023.46 566.31 1033.95C554.55 1033.95 542.79 1033.95 531.03 1033.95C534.1 1023.46 537.17 1012.98 540.24 1002.5C536.66 999.11 533.42 996.19 532.48 991.06C530.55 980.47 538.73 970.94 549.5 971.19C559.19 971.42 566.96 980.65 565.56 990.2C564.75 995.64 561.35 998.98 557.51 1002.5Z"
     fill="#394a2e"
     fill-rule="evenodd"
     stroke="#394a2e"
     stroke-width="0.25"
     stroke-linejoin="round"
     id="path2" />
</svg>
