<?xml version="1.0" encoding="UTF-8" standalone="no"?>
<svg
   class="{klass}"
   version="1.1"
   width="1024"
   height="1024"
   viewBox="0 0 1024 1024"
   id="svg19"
   xml:space="preserve"
   xmlns="http://www.w3.org/2000/svg"
   xmlns:svg="http://www.w3.org/2000/svg"><defs
     id="defs19"><rect
       x="122.8449"
       y="757.2511"
       width="848.50726"
       height="232.52785"
       id="rect25" /></defs><path
     d="m 889.125,192.5625 c 5.09646,2.82914 8.33175,6.88778 11.3125,11.8125 1.32871,6.20067 0.21303,11.1176 -3.1875,16.4375 -3.13487,4.30762 -6.10624,7.47291 -11.25,9.1875 -4.27061,0.41586 -7.83387,0.71105 -11.5625,-1.5625 -8.76921,-5.17159 -31.70791,3.30358 -41.17969,5.72266 C 816.14585,238.84839 799.60493,245.59541 784,254 c -1.1434,0.60199 -2.2868,1.20398 -3.46484,1.82422 -14.19035,7.75349 -27.13637,17.33689 -38.78125,28.53906 -2.2568,2.16076 -4.54748,4.19556 -6.94141,6.19922 C 726.23147,298.0078 718.98999,307.08112 712,316 c -0.495,0.62826 -0.99,1.25651 -1.5,1.90381 -12.3386,15.76805 -23.27699,32.47667 -34.25598,49.20123 -1.14375,1.74222 -2.28903,3.48343 -3.43445,5.22455 -5.48051,8.33646 -10.93359,16.68929 -16.26269,25.12353 -11.6782,18.45623 -23.92758,36.51543 -36.17791,54.59496 -4.87211,7.19833 -9.69873,14.42642 -14.50181,21.67098 C 592.63992,493.63253 578.73789,513.17474 564,532 c -0.91541,1.17445 -1.83077,2.34893 -2.74609,3.52344 -7.70458,9.86613 -15.46714,19.65042 -23.91797,28.89453 -1.26689,1.40036 -2.52778,2.80673 -3.75391,4.24292 -4.98998,5.82941 -10.33686,11.28009 -15.75976,16.70215 -1.56087,1.56305 -3.11355,3.13393 -4.66602,4.70532 C 506.76469,596.49619 500.14082,602.39758 493,608 c -0.70866,0.56791 -1.41732,1.13583 -2.14746,1.72095 -28.74416,22.96338 -60.73581,38.72971 -96.72754,46.52905 -1.12257,0.24508 -1.12257,0.24508 -2.26782,0.49512 -10.98905,2.2627 -22.00983,2.44134 -33.18897,2.44018 -2.33425,0.002 -4.66802,0.0204 -7.00219,0.0393 -29.42723,0.10949 -58.99846,-6.54312 -84.66602,-21.22461 -0.65372,-0.36819 -1.30743,-0.73638 -1.98096,-1.11572 -35.63226,-20.32321 -59.84256,-55.54465 -70.70654,-94.75928 -13.5055,-52.31118 -1.94127,-109.68167 10.75,-161.0625 0.33149,-1.40294 0.33149,-1.40294 0.66968,-2.83423 1.57895,-6.12648 3.49893,-10.77492 9.01867,-14.36798 3.01635,-1.15374 5.57243,-1.11535 8.80198,-1.12099 0.65663,-0.004 1.31327,-0.008 1.9898,-0.0116 2.1986,-0.0103 4.39694,-0.006 6.59555,-0.002 1.57705,-0.004 3.15409,-0.01 4.73113,-0.0155 4.28311,-0.0134 8.56613,-0.014 12.84926,-0.0114 3.57603,0.001 7.15204,-0.004 10.72807,-0.009 8.4374,-0.0111 16.87475,-0.0115 25.31215,-0.005 8.70236,0.006 17.40455,-0.006 26.10688,-0.0276 7.47274,-0.0176 14.94542,-0.0236 22.41817,-0.0204 4.46255,0.002 8.92497,-8.2e-4 13.3875,-0.0147 4.1976,-0.0126 8.39495,-0.0106 12.59256,0.002 1.53908,0.002 3.07819,-3.7e-4 4.61726,-0.009 2.10431,-0.0105 4.20777,-0.002 6.31205,0.0103 1.17654,-1.7e-4 2.35308,-3.4e-4 3.56528,-5.1e-4 4.35709,0.50369 7.91233,1.80096 10.78716,5.20481 4.1982,8.46965 5.60116,17.44879 7.26685,26.66992 0.33733,1.79936 0.67622,3.59843 1.0166,5.39722 0.8917,4.72983 1.76674,9.46257 2.63654,14.19647 1.40932,7.66505 2.83591,15.32682 4.27469,22.98639 0.49776,2.66855 0.98436,5.33896 1.46988,8.00976 3.23285,20.12864 3.23285,20.12864 15.21167,35.73047 9.72221,5.77425 20.26099,5.49677 31.09375,3.54688 21.08917,-5.76576 37.16831,-20.55174 52.48437,-35.36719 0.89203,-0.86238 1.78406,-1.72477 2.70313,-2.61328 4.02734,-3.9657 7.80722,-8.06547 11.48437,-12.35547 2.66858,-2.99065 5.53035,-5.77244 8.40625,-8.5625 2.62536,-2.69355 5.0728,-5.50553 7.53711,-8.3457 3.64604,-4.14132 7.46967,-8.11783 11.26367,-12.12305 3.73456,-3.95879 7.36776,-7.98417 10.93555,-12.09375 2.50066,-2.85456 5.0826,-5.63042 7.66992,-8.40625 3.78988,-4.0847 7.52175,-8.20397 11.16797,-12.41797 2.83204,-3.2185 5.74231,-6.36496 8.64477,-9.51977 2.9153,-3.17024 5.81117,-6.35629 8.68726,-9.56226 4.14057,-4.61126 8.3171,-9.18821 12.51465,-13.74756 1.81064,-1.96844 3.60994,-3.94507 5.40112,-5.9314 9.15376,-10.07701 18.78574,-19.67584 28.42163,-29.28881 2.4394,-2.43367 4.87423,-4.87185 7.30778,-7.31136 2.36063,-2.36513 4.72508,-4.72642 7.0892,-7.08806 0.86163,-0.86366 1.72327,-1.72732 2.61102,-2.61715 4.8926,-4.87384 9.8893,-9.54714 15.1546,-14.01566 0.67799,-0.57834 1.35597,-1.15667 2.0545,-1.75253 49.09823,-41.76066 108.71391,-67.23153 173.20331,-71.98575 0.79157,-0.0599 1.58314,-0.11984 2.3987,-0.18158 3.9254,-0.29351 7.84953,-0.55841 11.77977,-0.77789 1.44446,-0.0988 2.88888,-0.1982 4.33325,-0.29834 1.27464,-0.074 2.54928,-0.14808 3.86255,-0.22437 4.13686,-0.95752 5.58193,-2.66435 8.36792,-5.77954 5.3183,-1.77238 10.0383,-1.72173 15.125,0.56289 z"
     fill="#3c2c27"
     id="path2" /><path
     d="m 575,369 c 2.67744,1.26998 5.03324,2.65102 7.39844,4.43359 0.95495,0.71713 0.95495,0.71713 1.9292,1.44873 0.67563,0.51321 1.35126,1.02642 2.04736,1.55518 0.71043,0.53641 1.42087,1.07282 2.15283,1.62549 5.64282,4.27455 11.21963,8.62921 16.77295,13.01904 4.23719,3.34832 8.49849,6.66542 12.76172,9.98047 0.7591,0.59055 1.51819,1.1811 2.30029,1.78955 3.52621,2.74058 7.05711,5.4746 10.60205,8.19092 0.60127,0.46076 1.20254,0.92152 1.82203,1.39624 1.60104,1.22503 3.20389,2.44768 4.80688,3.67016 C 640,418 640,418 642,420 c -4.29,6.27 -8.58,12.54 -13,19 -3.50594,-0.87649 -4.71401,-1.28768 -7.39844,-3.33594 -0.63704,-0.48162 -1.27407,-0.96325 -1.93042,-1.45947 -0.67522,-0.52127 -1.35045,-1.04253 -2.04614,-1.57959 -0.70681,-0.53802 -1.41362,-1.07605 -2.14185,-1.63037 -5.75632,-4.39564 -11.45395,-8.86626 -17.13549,-13.35791 -3.17864,-2.51013 -6.38417,-4.9838 -9.59766,-7.44922 -1.62324,-1.24714 -3.24621,-2.49464 -4.86914,-3.74219 -1.37326,-1.05525 -2.74703,-2.10985 -4.12109,-3.16406 -2.42276,-1.86093 -4.84153,-3.72695 -7.25977,-5.59375 -1.14904,-0.88039 -1.14904,-0.88039 -2.32129,-1.77856 C 566.17734,392.81331 562.47709,389.67716 559,386 c 0.74443,-0.72703 0.74443,-0.72703 1.50391,-1.46875 4.2342,-4.17797 8.27202,-8.45266 12.14843,-12.96484 C 573.4085,370.68752 574.18018,369.81982 575,369 Z"
     fill="#727b6d"
     id="path13" /><text
     xml:space="preserve"
     id="text25"
     style="font-style:normal;font-variant:normal;font-weight:normal;font-stretch:normal;font-size:133.333px;font-family:Verdana;-inkscape-font-specification:Verdana;text-align:start;writing-mode:lr-tb;direction:ltr;white-space:pre;shape-inside:url(#rect25);display:inline;fill:#3c2c27;fill-opacity:1"
     transform="translate(53.966348)"><tspan
       x="122.8457"
       y="878.89568"
       id="tspan1">BriarVault</tspan></text><g
     id="g37"
     transform="translate(-8.335904,7.4584404)"
     style="fill:#cccccc"><path
       style="fill:#cccccc"
       d="m 320.30538,138.86396 c 1.98703,11.45422 10.66001,19.32946 9.95521,32.76531 -0.69551,13.25899 -7.27299,25.31916 -16.76044,34.62012 -10.57615,10.36825 -21.76255,19.48761 -34.5287,27.61601 -9.03152,5.7505 -16.07636,13.66068 -21.80455,22.90333 -9.48643,15.30672 -14.6171,33.32859 -11.4144,52.10856 2.1461,12.58425 9.11988,22.15501 14.87498,33.36992 2.88222,5.61654 8.30845,6.63443 7.80944,-1.31563 -1.35282,-21.55252 -0.41298,-45.58413 13.75838,-62.97515 14.15668,-17.37299 33.52263,-29.297 51.33673,-42.63329 15.99538,-11.97472 27.73875,-32.11675 23.99719,-52.57891 -3.29533,-18.02173 -15.12791,-35.6417 -30.18062,-43.00989 -1.96243,-0.6307 -4.99366,-2.73174 -7.04322,-0.87038 z"
       id="path37" /><path
       style="fill:#cccccc;stroke-width:0.853021"
       d="m 368.45393,172.70279 c 1.69498,9.77068 9.09321,16.48842 8.492,27.94948 -0.59328,11.31019 -6.20401,21.59776 -14.297,29.53167 -9.02167,8.84433 -18.5639,16.62334 -29.45369,23.55703 -7.70407,4.90529 -13.71347,11.65284 -18.59973,19.53701 -8.09212,13.05695 -12.46869,28.42997 -9.73672,44.44967 1.83067,10.73463 7.77945,18.89868 12.68867,28.46523 2.45859,4.79102 7.08727,5.6593 6.66161,-1.12226 -1.15398,-18.38474 -0.35228,-38.8842 11.73618,-53.7191 12.07594,-14.81951 28.59549,-24.99094 43.79129,-36.36707 13.64438,-10.21468 23.66172,-27.39625 20.47009,-44.85089 -2.81098,-15.37291 -12.90442,-30.4031 -25.74469,-36.68832 -1.67399,-0.538 -4.25969,-2.33023 -6.00801,-0.74245 z"
       id="path37-0" /></g></svg>
